<svg xmlns="http://www.w3.org/2000/svg"><defs><font id="DankMono-Regular" horiz-adv-x="660"><font-face font-family="Dank Mono" font-weight="400" units-per-em="1200" panose-1="0 0 5 9 0 0 0 0 0 0" ascent="935" descent="-265" x-height="570" cap-height="780" bbox="-235 -216 1841 876" underline-thickness="50" underline-position="-150" unicode-range="U+0020-007E"/><glyph glyph-name=".notdef"/><glyph glyph-name="uni0020"/><glyph glyph-name="uni0021" unicode="!" d="M290 223h77l14 363v194H276V586zM267 48q0-63 63-63 62 0 62 63 0 62-62 62-30 0-46.5-16T267 48z"/><glyph glyph-name="uni0022" unicode="&quot;" d="M176 786V462l56-11q3 6 10 33.5t14.5 64.5 14.5 78 11 73v80zm201 0V462l56-11q3 6 10 33.5t14.5 64.5 14.5 78 11 73v80z"/><glyph glyph-name="uni0023" unicode="#" d="M241 266l32 249h139l-33-249H241zm251 249h88v72h-77l29 192h-81l-28-192H285l28 192h-81l-28-192h-87v-72h76l-33-249H80v-70h71L122 0h81l29 196h138L341 0h81l28 196h93v70h-83z"/><glyph glyph-name="uni0024" unicode="$" d="M496 204q-2-65-36-98t-95-42v284q64-13 98.5-44T496 204zM167 588q0 51 29.5 82t83.5 42V456q-113 42-113 132zm410-376q0 51-13 87.5T524.5 362t-66 43-93.5 28v282q37-4 66-21.5t61-53.5l56 53q-27 41-75 66.5T365 793v47h-85v-48q-43-6-78.5-24t-61-45-39.5-62.5T87 584q0-80 52-134.5T280 367V63q-93 10-139 76L82 84q10-19 30-36t46-30 57.5-21.5T280-14v-62h85v65q98 12 155 67t57 156z"/><glyph glyph-name="uni0025" unicode="%" d="M182 506q31 0 57.5 11.5t46 31 30.5 47 11 58.5q0 63-40.5 102.5T182 796 78 756.5 38 654q0-32 11-59t30-47 45.5-31 57.5-11zm423 252l-62 38L62 24l61-39zM182 563q-38 0-55 21t-17 70q0 50 16.5 70t55.5 20q41 0 58-20.5t17-69.5-17-70-58-21zM485-13q31 0 57.5 11.5t46 31 30.5 47 11 58.5q0 63-40.5 102.5T485 277t-104-39.5T341 135q0-32 11-59t30-47 45.5-31T485-13zm0 57q-38 0-55 21t-17 70q0 50 16.5 70t55.5 20q41 0 58-20.5t17-69.5-17-70-58-21z"/><glyph glyph-name="uni0026" unicode="&amp;" d="M286 63q-30 0-59.5 14t-52 37-36.5 52.5-14 61.5q0 88 103 158 36-45 85.5-102.5T428 150q-33-42-68.5-64.5T286 63zm348-32q-31 35-59 67t-54 61q34 57 62 128l-54 61q-14-38-28-71t-30-61q-67 76-114.5 130.5t-79.5 93-50 64-27 43.5-11.5 31.5T186 607q0 22 8 42.5t22 36 32.5 24.5 39.5 9q39 0 74.5-18.5T419 650l52 50q-52 97-180 97-88 0-139.5-50.5T101 609q0-15 3.5-30t12-34 24-43 39.5-56Q36 355 36 228q0-47 20.5-90.5T111 61t78.5-53T282-12q54 0 102.5 27T476 94l84-95z"/><glyph glyph-name="uni0027" unicode="'" d="M272 786V462l56-11q3 6 10 33.5t14.5 64.5 14.5 78 11 73v80z"/><glyph glyph-name="uni0028" unicode="(" d="M287 293q0 65 10 121t32.5 108.5T388 627t88 107l-51 52q-63-58-108-116t-74-118-42.5-124T187 293t13.5-135T243 34t74-118 108-116l51 52q-52 55-88 106.5t-58.5 104-32.5 109T287 293z"/><glyph glyph-name="uni0029" unicode=")" d="M373 293q0-65-10-121.5t-32.5-109-58.5-104T184-148l51-52q63 58 108 116t74 118 42.5 124T473 293t-13.5 135T417 552t-74 118-108 116l-51-52q52-55 88-107t58.5-104.5T363 414t10-121z"/><glyph glyph-name="uni002A" unicode="*" d="M257 558L154 443l63-48 96 87 107-99 62 38-105 128 159 59-30 64-142-35 3 155-73 5-13-151-125 48-39-60z"/><glyph glyph-name="uni002B" unicode="+" d="M526 349H368v156h-80V349H133v-80h155V113h80v156h158v80z"/><glyph glyph-name="uni002C" unicode="," d="M392 48q0 62-62 62-30 0-46.5-16T267 48q0-28 14-44-8-21-18-44t-19.5-42.5-17-34T216-136l48-24q15 9 36.5 35.5t42 58 35 63T392 48z"/><glyph glyph-name="uni002D" unicode="-" d="M526 260v80H135v-80h391z"/><glyph glyph-name="uni002E" unicode="." d="M267 48q0-63 63-63 62 0 62 63 0 62-62 62-30 0-46.5-16T267 48z"/><glyph glyph-name="uni002F" unicode="/" d="M589 803l-62 38L72-98l61-39z"/><glyph glyph-name="uni0030" unicode="0" d="M329 796q-58 0-107.5-30.5t-85.5-85-56-131T60 381q0-84 20-156.5t55.5-126 85-83.5T329-15t109 30.5T524 99t56 125.5T600 381q0 91-20.5 167.5T523 680t-85.5 85.5T329 796zm0-64q64 0 109-68L188 192q-14 39-21 86.5T160 381q0 80 12 144.5T206.5 636t53.5 71 69 25zm0-672q-56 0-98 51l244 472q14-42 21-92t7-110q0-71-12.5-130t-35-101.5-54.5-66T329 60z"/><glyph glyph-name="uni0031" unicode="1" d="M555 66v4H385v710h-85q-29-47-78-79.5T110 654l9-84q63 7 110.5 28t70.5 52V70H127V0h434q-5 15-5.5 32t-.5 34z"/><glyph glyph-name="uni0032" unicode="2" d="M473 616q0-60-40.5-126.5T332 354.5t-128.5-138T80 80V0h511v80H196q55 67 118.5 135.5T432 352t89.5 134.5T557 617q0 40-16.5 73.5t-46 57.5-71 37-91.5 13q-157 0-224-135l59-40q36 57 78.5 77.5T338 721q66 0 100.5-28t34.5-77z"/><glyph glyph-name="uni0033" unicode="3" d="M136 707l53-49q9 18 24 30t32.5 19 36.5 10 35 3q72 0 111.5-36T468 584q0-72-45-110.5T293 435h-44v-70h44q89 0 138-43t49-124q0-66-38-101.5T329 61q-32 0-57 5t-46 16-38.5 29-35.5 44l-59-40q35-66 89.5-98T318-15q120 0 186 56.5T570 199q0 71-31.5 124.5T453 400q104 57 104 184 0 48-17.5 87T491 738t-73 43-90 15q-28 0-58-5.5t-56.5-17-47-28T136 707z"/><glyph glyph-name="uni0034" unicode="4" d="M551 299H442v77q0 17 .5 34t5.5 32h-91V299H180l251 481h-90L90 299v-80h267V0h85v219h109v80z"/><glyph glyph-name="uni0035" unicode="5" d="M177 388h-76l32 392h392v-70H211l-22-250q14 29 48 45.5t85 16.5q53 0 97-18.5t75.5-52T543 371t17-104q0-61-18-113t-50.5-89.5T415 6t-97-21Q202-15 96 91l56 55q37-42 76.5-61T318 66q75 0 116.5 52.5T476 267q0 88-43 133.5T307 446q-43 0-78-15.5T177 388z"/><glyph glyph-name="uni0036" unicode="6" d="M345 66q-37 0-68.5 14t-54 39.5-35.5 61-13 77.5v72q12 20 32 37t44 29.5 51 19.5 54 7q37 0 67.5-13t53-36 35-55.5T523 248q0-39-13.5-72T472 118.5 415.5 80 345 66zm196 690q-31 19-74.5 29.5T378 796q-64 0-117-23t-91-65-59.5-100T89 480V258q0-63 18-113.5t51-86T238.5 4 345-15 452 3.5t82.5 53 53 83T606 248q0 57-17.5 103t-50 78-79 49.5T355 496q-59 0-107-17.5T174 430v50q0 53 14.5 97t41 75.5 63.5 49 82 17.5q30 0 61.5-7.5T490 692z"/><glyph glyph-name="uni0037" unicode="7" d="M584 780H76v-70h418q-52-78-110-158T277.5 385 197 203 164 0h95q0 108 31.5 203T370 385t105 167 109 158v70z"/><glyph glyph-name="uni0038" unicode="8" d="M327 65q-79 0-118 29.5T170 180q0 60 38 110t119 75q41-12 71.5-32t50-44.5 29-52.5 9.5-56q0-57-41-86T327 65zm3 651q58 0 88-29t29-81q-1-51-31-93t-86-71q-61 29-92.5 71T206 606q0 53 33.5 81.5T330 716zm240-537q0 35-9.5 69.5T530 313t-54 53-79 36q30 13 54.5 35.5T493 488t25.5 60.5T527 615q-1 85-55 133t-145 48-146-46.5T126 615q0-70 36.5-128.5T263 401q-45-13-77.5-36.5T132 311t-31.5-64T90 178q0-43 18-79t49.5-61 75-39T327-15q53 0 97.5 13.5t77 38.5T552 98t18 81z"/><glyph glyph-name="uni0039" unicode="9" d="M333 714q37 0 68.5-14t54-39.5 35.5-61 13-77.5v-72q-12-20-31.5-38.5t-43.5-33-51.5-23T323 347q-37 0-67.5 13t-53 37.5-35 58.5-12.5 76q0 39 14 72t38 57.5 56.5 38.5 69.5 14zM137 24q31-19 74.5-29T300-15q64 0 117 23t91.5 64.5T568 172t21 128v222q0 63-18 113.5t-51 86-80.5 54.5T333 795t-107-18.5-82.5-53-53-83T72 532q0-61 17.5-109t50-81 79-50.5T323 274q59 0 107 22.5t74 53.5v-50q0-53-14.5-97t-41-75.5T385 79t-82-17q-30 0-61.5 7T188 88z"/><glyph glyph-name="uni003A" unicode=":" d="M267 458q0-63 63-63 62 0 62 63 0 62-62 62-30 0-46.5-16T267 458zm0-380q0-63 63-63 62 0 62 63 0 62-62 62-30 0-46.5-16T267 78z"/><glyph glyph-name="uni003B" unicode=";" d="M330 395q62 0 62 63 0 62-62 62-30 0-46.5-16T267 458q0-63 63-63zm0-255q-30 0-46.5-16T267 78q0-28 14-44-8-21-18-44t-19.5-42.5-17-34T216-106l48-24q15 9 36.5 35.5t42 58 35 63T392 78q0 62-62 62z"/><glyph glyph-name="uni003C" unicode="&lt;" d="M117 359v-91L499 30l36 78-335 205 335 204-33 80z"/><glyph glyph-name="uni003D" unicode="=" d="M525 372l6 80H134l-6-80h397zm0-207l6 80H134l-6-80h397z"/><glyph glyph-name="uni003E" unicode="&gt;" d="M543 359L158 597l-33-80 335-204-335-205 36-78 382 238v91z"/><glyph glyph-name="uni003F" unicode="?" d="M324 800q-79 0-141-26.5T97 698l51-62q12 23 32.5 39t45 27 51 16 50.5 5q77 0 114-27.5t37-88.5q0-44-16.5-71.5t-41.5-49-54.5-41-54.5-47-42-68T251 226h92q0 54 16.5 88.5t41 59 53 44.5 53 44.5T547 521t16 86q0 50-17 86.5t-48 60-75.5 35T324 800zM234 48q0-63 63-63 62 0 62 63 0 62-62 62-30 0-46.5-16T234 48z"/><glyph glyph-name="uni0040" unicode="@" d="M428 66q-57 0-88.5 45T308 238q0 76 30 115.5t88 39.5q31 0 50-12t36-41V112q-18-25-38-35.5T428 66zm-88 730q-78 0-131.5-34.5t-85.5-104-46-173T63 243q0-62 5.5-129.5t25-130 56-115T247-216l68 53q-14 7-23.5 15T258-120Q203-75 175.5 5.5T148 221q0 141 10.5 236.5t34 153.5 60 83 87.5 25q172 0 172-249v-60q-25 30-49.5 43T406 466q-84 0-132.5-61T225 238q0-55 13.5-101.5t38-80.5 58-52.5T408-15q59 0 104 49V0h85v470q0 154-64.5 240T340 796z"/><glyph glyph-name="uni0041" unicode="A" d="M318 647h13l103-357H221zM602 0L382 780H263L58 0h85l60 220h251L517 0h85z"/><glyph glyph-name="uni0042" unicode="B" d="M175 85v298h140q174 0 174-145 0-74-42.5-113.5T325 85H175zm90 610q86 0 125-25t39-85q0-61-37-89t-127-28h-90v227h90zm167-255q42 20 60 55t18 90q0 101-60.5 148T265 780H90V0h235q56 0 101 17t77 48 49.5 75 17.5 98q0 75-35 126.5T432 440z"/><glyph glyph-name="uni0043" unicode="C" d="M501 179q-4-22-20-43t-40-36.5-53-25-59-9.5q-88 0-135 80.5T147 377q0 77 13 140t36.5 107 57 68 75.5 24q25 0 49.5-9t44.5-24.5 35.5-36.5 22.5-45l94 27q-10 35-35 65.5t-58.5 53-73 36T329 796q-61 0-111.5-31T130 678.5 72.5 546 52 377q0-89 18.5-161.5t54-123.5 87-79T329-15q47 0 92 14.5T503 39t62.5 58 32.5 69z"/><glyph glyph-name="uni0044" unicode="D" d="M270 780q85 0 145-21.5t97.5-68 55-120T585 393Q585 0 340 0H85v780h185zm70-695q80 0 121 78t41 230q0 155-44 226.5T320 691H170V85h170z"/><glyph glyph-name="uni0045" unicode="E" d="M195 85h350V0H110v780h435v-85H195V453h290v-85H195V85z"/><glyph glyph-name="uni0046" unicode="F" d="M495 312v85H205v298h350v85H120V0h85v312h290z"/><glyph glyph-name="uni0047" unicode="G" d="M598 280v70H337v-70h183q-2-100-53.5-157.5T329 65q-90 0-136 79t-46 233q0 165 54.5 252T359 716q22 0 40.5-4.5T436 696t37-28.5 42-44.5l71 58q-61 61-114.5 88T359 796q-70 0-127-29.5t-97-84-61.5-132T52 377q0-189 71.5-290.5T329-15q61 0 110.5 21t85 59.5 54.5 93T598 280z"/><glyph glyph-name="uni0048" unicode="H" d="M583 0q-5 15-5.5 32t-.5 34v714h-85V410H164v370H79V0h85v340h328V0h91z"/><glyph glyph-name="uni0049" unicode="I" d="M542 66v4H372v640h139v70H140v-70h147V70H114V0h434q-5 15-5.5 32t-.5 34z"/><glyph glyph-name="uni004A" unicode="J" d="M568 780v1H148v-77h336V165q0-103-151-103-133 0-199 77L83 77q16-21 41.5-38t58-29T253-8.5t77-6.5q54 0 98.5 13T504 34.5 552 91t17 74v549q0 17 .5 34t5.5 32h-7z"/><glyph glyph-name="uni004B" unicode="K" d="M619 0L265 380l325 401-113-1-302-368v368l-85 1V0h85v268l32 40L492 0h127z"/><glyph glyph-name="uni004C" unicode="L" d="M555 0v70H192v710h-85V0h448z"/><glyph glyph-name="uni004D" unicode="M" d="M517 621q-17-50-36-99t-37-93.5-35.5-83.5-31.5-69h-86q-11 27-29 65.5t-38.5 84-41.5 96-39 99.5V0H58v780h87q20-51 45-110.5t51-116T290.5 449t39.5-77q15 29 37.5 77T415 553.5t49.5 116T508 780h94V0h-85v621z"/><glyph glyph-name="uni004E" unicode="N" d="M487 0L173 591V0H88v780h87l312-576v576h85V0h-85z"/><glyph glyph-name="uni004F" unicode="O" d="M329-15q65 0 116.5 27t87 79 54 127.5T605 391q0 95-19 170t-54.5 127.5-86.5 80T329 796q-134 0-204-104T55 391q0-198 71-302T329-15zm0 81q-88 0-131 77t-43 248q0 172 44 252t130 81q46 0 80-18.5t56-58.5 32.5-103.5T508 391q0-173-43.5-249T329 66z"/><glyph glyph-name="uni0050" unicode="P" d="M330 695q79 0 121.5-39.5T494 542q0-145-174-145H180v298h150zM180 312h90q69 0 125.5 12.5t96 39.5 61.5 71 22 107q0 54-17.5 98T508 715t-77 48-101 17H95V0h85v312z"/><glyph glyph-name="uni0051" unicode="Q" d="M605 391q0 95-19 170t-54.5 127.5-86.5 80T329 796q-134 0-204-104T55 391q0-180 59-283T285-12v-133h90v134Q485 7 545 110.5T605 391zM375 71v194h-90V71q-66 17-98 94t-32 226q0 172 44 252t130 81q46 0 80-18.5t56-58.5 32.5-103.5T508 391q0-150-32.5-226.5T375 71z"/><glyph glyph-name="uni0052" unicode="R" d="M175 695h150q79 0 121.5-39.5T489 542q0-145-174-145H175v298zM586 0q0 21-18 58.5t-44 83-56.5 94.5-55.5 94q75 22 116.5 72.5T570 542q0 54-17.5 98T503 715t-77 48-101 17H90V0h85v312h90q14 0 28 .5t27 1.5q26-43 55-90.5t53.5-90.5 41-78T486 0h100z"/><glyph glyph-name="uni0053" unicode="S" d="M355 435q-188 37-188 153 0 62 43.5 95.5T334 717q25 0 45.5-4t39-13 36.5-23.5 37-36.5l56 53q-32 48-92 75t-133 27q-52 0-95-15.5T153.5 736t-49-67T87 584t18.5-84.5 52.5-68 81.5-49.5T345 352q36-6 64.5-16t48-27 29.5-42.5 9-62.5q-1-77-49.5-110T315 61q-120 0-174 78L82 84q11-21 33.5-39.5T168 13t65-20.5 72-7.5q62 0 112 14t85.5 42 55 71T577 212q0 52-13.5 89t-41 63.5-69.5 43-98 27.5z"/><glyph glyph-name="uni0054" unicode="T" d="M584 780v-70H369V0h-85v710H76v70h508z"/><glyph glyph-name="uni0055" unicode="U" d="M494 209v571h85V209q0-50-15.5-91.5t-46.5-71T440 1 333-15q-62 0-109.5 16t-79 45.5-47.5 71T81 209v571h85V209q0-38 12.5-66.5t35-48 53-29.5T333 55q70 0 115.5 39T494 209z"/><glyph glyph-name="uni0056" unicode="V" d="M531 780L324 133 130 780H40L280 0h85l256 780h-90z"/><glyph glyph-name="uni0057" unicode="W" d="M529 780q0-61-4-149t-11.5-179-19-175T468 139q-28 78-57 160.5T368 460h-86q-16-78-43.5-160.5T182 139q-14 54-24 138t-16 175-9 179-3 149H45q1-52 4-116.5T57.5 528t13-144.5 16.5-143 19.5-131T129 0h81q16 40 32.5 84.5T275 174t29 89.5 21 84.5q8-40 20-84.5t26.5-89.5T402 84.5 433 0h81q13 48 25.5 109.5t24 131 20.5 143T600 528t10.5 135.5T614 780h-85z"/><glyph glyph-name="uni0058" unicode="X" d="M598 780h-87L331 467 159 780H68l215-396L62 0h92l173 303L491 0h95L374 387z"/><glyph glyph-name="uni0059" unicode="Y" d="M540 780L323 423 119 780H29l250-456V0h85v324l266 456h-90z"/><glyph glyph-name="uni005A" unicode="Z" d="M172 80l172 264h196v77H395l182 279v80H93v-80h376L286 421H120v-77h116L63 80V0h534v80H172z"/><glyph glyph-name="uni005B" unicode="[" d="M210 780v-980h261v78H301v823h170v79H210z"/><glyph glyph-name="uni005C" unicode="\" d="M71 803l456-940 61 39-455 939z"/><glyph glyph-name="uni005D" unicode="]" d="M450 780H189v-79h170v-823H189v-78h261v980z"/><glyph glyph-name="uni005E" unicode="^" d="M462 570h90L364 830h-85L107 570h90l126 157z"/><glyph glyph-name="uni005F" unicode="_" d="M636-200v70H25v-70h611z"/><glyph glyph-name="uni0060" unicode="`" horiz-adv-x="600" d="M192 801l245-139 30 52-229 162z"/><glyph glyph-name="uni0061" unicode="a" d="M291 58q-51 0-87.5 23T167 148q0 53 61 75.5T420 246h31l33-1v-92q-35-48-88.5-71.5T291 58zm19 528q-63 0-119-25t-98-71l51-62q48 47 89.5 64t79.5 17 69.5-13.5 54-37.5 35-57.5T484 326v-7q-16 1-31 1.5t-29 .5Q80 321 80 148q0-40 17.5-70t48-50.5 72-31T306-14q60 1 108 23.5T484 70q0-20-7.5-40T462 0h107v326q0 57-19 105t-53.5 82.5-82 53.5T310 586z"/><glyph glyph-name="uni0062" unicode="b" d="M332 67q-64 0-102.5 21T171 155v243q28 54 72.5 83.5T342 511q38 0 69-15t53-42.5 34-66 12-86.5q0-51-13-94t-37-74-56.5-48.5T332 67zm10 519q-57 0-98-21t-73-67v282l-85 6V0h107q-5 6-9.5 16.5T176 39q31-26 70.5-39.5T332-14q59 0 107.5 22.5t83 64T576 172t19 129q0 136-66 210.5T342 586z"/><glyph glyph-name="uni0063" unicode="c" d="M481 179q-11-57-50-85.5T329 65q-80 0-121 51t-41 151q0 111 39 175t123 64q50 0 90.5-27t55.5-77l94 27q-11 35-34.5 64T479 542.5t-70.5 32T329 586q-65 0-113-24.5t-80-67-48-101T72 267q0-134 66.5-207.5T329-14q49 0 91 12.5t74.5 36T549 91t30 74z"/><glyph glyph-name="uni0064" unicode="d" d="M330 67q-39 0-71.5 17.5T202 133t-37 74-13 94q0 48 12 86.5t34 66 53 42.5 69 15q54 0 98.5-29.5T491 398V155q-20-46-58.5-67T330 67zM582 0q-5 15-5.5 32t-.5 34v714l-85 6V498q-32 46-73 67t-98 21q-121 0-187-74.5T67 301q0-71 19-129t53.5-99.5 83-64T330-14q96 0 161 57V0h91z"/><glyph glyph-name="uni0065" unicode="e" d="M166 321q4 88 40.5 139T325 511q84 0 123-49t34-141H166zm168 265q-123 0-186.5-76T80 295v-51q0-57 19-104.5t53.5-82 82-53.5T339-15q63 0 119 25t98 71l-51 62q-48-47-89.5-64T336 62t-69.5 13.5-54 37.5-35 57.5T165 244l406 2 2 49q5 140-56 215.5T334 586z"/><glyph glyph-name="uni0066" unicode="f" d="M422 712q35 0 67.5-19.5T541 629l76 34q-32 71-85 102t-109 31q-38 0-73.5-14T286 741t-44.5-66-16.5-89V321H116v-77h109v-444l85-6v450h226v77H310v265q0 32 9.5 55.5t25 39.5 35.5 23.5 42 7.5z"/><glyph glyph-name="uni0067" unicode="g" d="M313 136q-37 0-69.5 15T187 192t-38 61-14 75q0 39 14 73t38 58.5 56.5 39T313 513q54 0 98.5-29.5T484 400V232q-24-45-69-70.5T313 136zm171 364q-61 86-171 86-60 0-108-18t-82-52-52.5-81.5T52 328q0-60 19-110.5t53.5-86.5T207 75t106-20q43 0 87 16.5t84 48.5V0q0-103-151-103-133 0-199 77L83-88q16-21 41.5-38t58-29 70.5-18.5 77-6.5q54 0 98.5 13t75.5 36.5T552-74t17 74v504q0 17 .5 34t5.5 32h-91v-70z"/><glyph glyph-name="uni0068" unicode="h" d="M564 66v231q0 53-11.5 105t-37 93-64.5 66-95 25q-26 0-52.5-6T254 563t-41.5-26-28.5-34v277l-85 6V0h85v412q19 38 48.5 63.5T314 501q38 0 67.5-14.5t50-39 31-58T473 318V0h97q-5 15-5.5 32t-.5 34z"/><glyph glyph-name="uni0069" unicode="i" d="M322 671q62 0 62 63 0 62-62 62-30 0-46.5-16T259 734q0-63 63-63zM547 66v4H372l1 500H174v-63l117-7V70H119V0h434q-5 15-5.5 32t-.5 34z"/><glyph glyph-name="uni006A" unicode="j" d="M431 671q62 0 62 63 0 62-62 62-30 0-46.5-16T368 734q0-63 63-63zM279 570v-63l117-7V0q0-32-9.5-55.5t-25-39.5-35.5-23.5-42-7.5q-35 0-67.5 19.5T165-43L89-77q32-71 85-102t109-31q38 0 73.5 14t63.5 41 44.5 66T481 0l1 570H279z"/><glyph glyph-name="uni006B" unicode="k" d="M623 0L298 313l288 248-123 9-264-228v438l-85 6V0h85v228l27 24L486 0h137z"/><glyph glyph-name="uni006C" unicode="l" d="M543 66v4H373v710H171v-63l117-7V70H115V0h434q-5 15-5.5 32t-.5 34z"/><glyph glyph-name="uni006D" unicode="m" d="M473 586q-49 0-71.5-20.5T362 501v-5q-14 41-40.5 65.5T253 586q-36 0-57.5-15T157 519v51H72V0h91q-5 15-5.5 32t-.5 34v362q18 37 34 55t39 18q32 0 49-24t17-57V0h81v414.5l-1 15.5q20 45 37 63t37 18q32 0 49-24t17-57V0h81v409q0 38-5 70.5t-19 56-38 37-62 13.5z"/><glyph glyph-name="uni006E" unicode="n" d="M567 297q0 53-11.5 105t-37 93-64.5 66-95 25q-26 0-52.5-6T257 563t-41.5-26-28.5-34q1 19 8 38.5t14 28.5H102V0h85v412q19 38 48.5 63.5T317 501q38 0 67.5-14.5t50-39 31-58T476 318V0h97q-5 15-5.5 32t-.5 34v231z"/><glyph glyph-name="uni006F" unicode="o" d="M329-15q60 0 108.5 22t83 62 53.5 96.5T593 291q0 67-18.5 121.5t-53 93T438 565t-109 21-108.5-20.5T138 507t-52.5-93T67 291q0-70 18.5-126.5t53-96.5T221 6.5 329-15zm0 73q-76 0-119 62t-43 171q0 108 43 166t119 59q79 1 123-57t44-168q0-111-44-172T329 58z"/><glyph glyph-name="uni0070" unicode="p" d="M326 67q-64 0-102.5 21T165 155v243q28 54 72.5 83.5T336 511q38 0 69-15t53-42.5 34-66 12-86.5q0-51-13-94t-37-74-56.5-48.5T326 67zm10 519q-57 0-98-21t-73-67v2q0 20 7.5 40t14.5 30H80v-776l85 6V43q65-57 161-57 59 0 107.5 22.5t83 64T570 172t19 129q0 136-66 210.5T336 586z"/><glyph glyph-name="uni0071" unicode="q" d="M493 155q-20-46-58.5-67T332 67q-39 0-71.5 17.5T204 133t-37 74-13 94q0 48 12 86.5t34 66 53 42.5 69 15q54 0 98.5-29.5T493 398V155zm0 343q-32 46-73 67t-98 21q-121 0-187-74.5T69 301q0-71 19-129t53.5-99.5 83-64T332-14q96 0 161 57v-249l85 6v704q0 17 .5 34t5.5 32h-91v-72z"/><glyph glyph-name="uni0072" unicode="r" d="M562 476l53 83q-24 9-41 14.5t-29.5 8.5-21.5 3.5-17 .5q-16 0-40-2.5T417.5 573 370 548.5 332 503q0 5 1.5 14.5t4 20 5 19.5 5.5 13H138v-63l117-7V70H78V0h434q-5 15-5.5 32t-.5 34v4H337v327q11 46 49.5 74t89.5 28q44 0 86-23z"/><glyph glyph-name="uni0073" unicode="s" d="M364 326q-83 16-121.5 37T204 419q0 39 42 64t108 25q47 0 81.5-15.5T505 439l54 54q-32 45-87 69t-127 24q-50 0-90.5-12T185 539.5 140 486t-16-69q0-67 54.5-108T357 243q74-15 101.5-31t27.5-45q0-21-12-40.5t-32-34-46.5-23T340 61q-51 0-96 26.5T157 163l-57-58q45-60 103.5-90T339-15q52 0 94 13.5t71.5 38 45.5 58 16 73.5q0 65-47 101.5T364 326z"/><glyph glyph-name="uni0074" unicode="t" d="M508 152q-19-44-51.5-63.5T389 69q-22 0-42 7.5T311.5 100t-25 39.5T277 195v298h243v77H277v210l-85 6V570h-92v-77h92V195q0-50 16.5-89T253 40t63.5-41T390-15q56 0 109 31t85 102z"/><glyph glyph-name="uni0075" unicode="u" d="M558 0q-5 15-5.5 32t-.5 34v504h-85V167q-16-26-29.5-46T409 87.5 376.5 67 336 60q-35 0-64.5 15T221 115.5 188.5 174 177 243v328H86V264q0-57 15.5-107.5T145 68t66.5-60.5T296-15q54 0 101 26t70 71V0h91z"/><glyph glyph-name="uni0076" unicode="v" d="M492 570L323 133 167 570H77L279 0h85l218 570h-90z"/><glyph glyph-name="uni0077" unicode="w" d="M519 586q0-123-18.5-231T452 139q-28 78-47.5 145.5T372 430h-86q-14-78-36.5-145.5T198 139q-28 109-43 216t-15 231H55q2-155 28.5-299T145 0h81q32 80 57.5 149.5T325 298q15-79 38.5-148.5T417 0h81q20 71 39 142.5t34 144 24 147 9 152.5h-85z"/><glyph glyph-name="uni0078" unicode="x" d="M562 0L377 290l180 280h-90L332 361 199 570h-90l178-280L99 0h91l141 220L471 0h91z"/><glyph glyph-name="uni0079" unicode="y" d="M475 570q-6-32-20-79.5t-33-105-42-121T333 137q-25 60-51.5 120T232 373.5 192 480t-23 90H85q8-49 31-113t53-135 62.5-146T291 30h1l-35-86q-16-43-40.5-66T156-145h-11l-12 2-14-66q21-4 45-4 59 0 100 32t66 100q35 81 72.5 175t71 184 59 167T570 570h-95z"/><glyph glyph-name="uni007A" unicode="z" d="M541 66v4H202l335 430v70H126v-70h323L113 70V0h434q-5 15-5.5 32t-.5 34z"/><glyph glyph-name="uni007B" unicode="{" d="M489 714v66q-8 1-17 1h-17q-40 0-76-8.5T317 746t-41.5-46-15.5-66q0-26 6.5-48.5t14-45.5 13.5-48 6-56q0-18-4-37t-17.5-34-39-25-69.5-10v-80q44 0 70-10t39.5-26 17-35 3.5-36q0-32-6-54t-13.5-41.5-14-39.5-6.5-48q0-42 15.5-72t42.5-50 63-29.5 77-9.5h15.5l15.5 1v66q-18-3-35-3-43 0-74 19.5T349-50q0 22 6 42t13.5 42T382 82t6 59q0 26-5 51t-17 45.5-32 35-49 19.5q56 10 79.5 49t23.5 93q0 31-6 59.5T368.5 548 355 597t-6 43q0 44 29.5 60.5T449 717q19 0 40-3z"/><glyph glyph-name="uni007C" unicode="|" d="M284 780v-980h91v980h-91z"/><glyph glyph-name="uni007D" unicode="}" d="M171 714q21 3 40 3 41 0 70.5-16.5T311 640q0-20-6-43t-13.5-49-13.5-54.5-6-59.5q0-54 23.5-93t79.5-49q-29-5-49-19.5t-32-35-17-45.5-5-51q0-33 6-59t13.5-48T305-8t6-42q0-48-31-67.5T206-137q-17 0-35 3v-66q8-1 15.5-1H202q41 0 77 9.5t63 29.5 42.5 50T400-40q0 28-6 48t-13.5 39.5-14 41.5-6.5 54q0 17 3.5 36t17 35 39.5 26 70 10v80q-44 0-69.5 10t-39 25-17.5 34-4 37q0 31 6.5 56t14 48 13.5 45.5 6 48.5q0 38-15.5 66T343 746t-61.5 26.5T205 781h-17l-17-1v-66z"/><glyph glyph-name="uni007E" unicode="~" d="M235 405q-50 0-90-31.5T76 284l58-43q45 84 98 84 25 0 44-15.5t39.5-34 46.5-34 63-15.5q31 0 56 11.5t45 29 34.5 39T585 347l-59 42q-20-36-44.5-59.5T428 306q-24 0-42.5 15.5t-39 34-46.5 34-65 15.5z"/><glyph glyph-name="i.loclTRK" d="M330 671q62 0 62 63 0 62-62 62-30 0-46.5-16T267 734q0-63 63-63zM547 66v4H372l1 500H174v-63l117-7V70H119V0h434q-5 15-5.5 32t-.5 34z"/><glyph glyph-name="zero.dnom" d="M329 350q-33 0-60.5-14T221 297t-31-59-11-75q0-38 11-70.5T221 36t47.5-37.5T329-15t60.5 13.5 48 37.5 32 56.5T481 163q0 41-11.5 75T438 297t-48 39-61 14zm0-37q33 0 56-26L253 87q-13 30-13 76 0 69 24 109.5t65 40.5zm0-287q-27 0-49 19l129 200q6-17 9.5-38t3.5-44q0-63-25.5-100T329 26z"/><glyph glyph-name="one.dnom" d="M313 0h55v347h-55q-14-19-39-33.5T211 291l6-45q38 5 62.5 13.5T313 283V0z"/><glyph glyph-name="two.dnom" d="M413 262q0-26-22.5-52.5T335 156t-70.5-55T197 43V0h281v43H271q30 30 65 57.5t64.5 54.5 49 53.5T469 263q0 18-10.5 33.5T430 324t-42.5 19-51.5 7q-43 0-79-19.5T203 281l42-18q20 26 43.5 35.5T339 308q74 0 74-46z"/><glyph glyph-name="three.dnom" d="M224 302l29-29q10 16 29 22.5t42 6.5q34 0 58.5-10t24.5-42q0-29-22.5-46T315 187h-24v-39h24q98 0 98-69 0-31-22-41.5T330 27q-38 0-57.5 8.5T233 67l-33-25q20-29 48.5-43T324-15q32 0 59 6.5T430 10t31.5 29.5T473 79q0 31-20.5 54.5T403 167q29 12 45.5 34.5T465 250q0 22-11.5 39.5T423 319t-43.5 18.5T330 344q-34 0-64.5-11T224 302z"/><glyph glyph-name="four.dnom" d="M457 131h-65q0 16 .5 32.5T398 194h-62v-63h-83l138 216h-59L194 131V88h142V0h56v88h65v43z"/><glyph glyph-name="five.dnom" d="M263 167h-52l18 177h215v-44H282l-12-93q8 12 26.5 22t46.5 10q26 0 48.5-9.5t39.5-27 27-41 10-52.5q0-27-12-49.5t-32-39-46-26-55-9.5q-64 0-122 47l30 31q20-18 42-26t50-8q41 0 65 19t24 61q0 46-20 67t-58 21q-23 0-42.5-9T263 167z"/><glyph glyph-name="six.dnom" d="M351 29q-41 0-64.5 20.5T262 105v30q14 19 37.5 31t52.5 12q39 0 60.5-20.5T434 104q0-32-20.5-53.5T351 29zm103 299q-17 8-40.5 14t-49.5 6q-34 0-63-10.5t-50.5-30-33.5-46-12-58.5v-98q0-55 41-87.5T351-15q33 0 59 9.5t43.5 26 27 38T490 104q0 27-11 48t-30 35.5-44 22.5-53 8q-38 0-57-11.5T262 181v22q0 50 25.5 77t75.5 27q17 0 35-3t30-9z"/><glyph glyph-name="seven.dnom" d="M465 347H190v-45h210q-25-34-55-68t-55.5-70-43-76.5T229 0h62q0 47 18 87.5t44.5 76.5 56.5 70 55 68v45z"/><glyph glyph-name="eight.dnom" d="M261 262q0 22 19.5 36.5T330 313q29 0 47.5-14.5T395 262q-2-42-66-71l2 1q-34 13-52 31.5T261 262zm67-237q-86 0-86 50 0 23 22.5 43.5T328 153q42-14 65.5-34.5T417 75t-23.5-36.5T328 25zm51 147q29 14 46 39t16 55q0 37-31 60.5T328 350q-53 0-83-22.5T215 266q0-31 17.5-56t48.5-38q-41-16-63.5-41T195 74q0-38 37.5-63.5T328-15q60 0 98.5 25.5T465 75q0 66-86 97z"/><glyph glyph-name="nine.dnom" d="M331 301q42 0 65.5-20.5T420 203q-31-45-90-45-38 0-59 18.5T250 229q0 72 81 72zM218 13q19-15 40-21.5t50-6.5q77 0 123 40t46 106v97q0 26-11 48t-30.5 38-46 25-58.5 9q-60 0-98.5-33T194 229q0-51 37.5-82.5T330 115q28 0 47.5 8t42.5 29v-21q0-51-28.5-78T309 26q-45 0-65 20z"/><glyph glyph-name="zero.numr" d="M329 796q-33 0-60.5-14T221 743t-31-59-11-75q0-38 11-70.5t31-56.5 47.5-37.5T329 431t60.5 13.5 48 37.5 32 56.5T481 609q0 41-11.5 75T438 743t-48 39-61 14zm0-37q33 0 56-26L253 533q-13 30-13 76 0 69 24 109.5t65 40.5zm0-287q-27 0-49 19l129 200q6-17 9.5-38t3.5-44q0-63-25.5-100T329 472z"/><glyph glyph-name="one.numr" d="M313 433h55v347h-55q-14-19-39-33.5T211 724l6-45q38 5 62.5 13.5T313 716V433z"/><glyph glyph-name="two.numr" d="M413 708q0-26-22.5-52.5T335 602t-70.5-55-67.5-58v-43h281v43H271q30 30 65 57.5t64.5 54.5 49 53.5T469 709q0 18-10.5 33.5T430 770t-42.5 19-51.5 7q-43 0-79-19.5T203 727l42-18q20 26 43.5 35.5T339 754q74 0 74-46z"/><glyph glyph-name="three.numr" d="M224 754l29-29q10 16 29 22.5t42 6.5q34 0 58.5-10t24.5-42q0-29-22.5-46T315 639h-24v-39h24q98 0 98-69 0-31-22-41.5T330 479q-38 0-57.5 8.5T233 519l-33-25q20-29 48.5-43t75.5-14q32 0 59 6.5t47 18.5 31.5 29.5T473 531q0 31-20.5 54.5T403 619q29 12 45.5 34.5T465 702q0 22-11.5 39.5T423 771t-43.5 18.5T330 796q-34 0-64.5-11T224 754z"/><glyph glyph-name="four.numr" d="M457 564h-65q0 16 .5 32.5T398 627h-62v-63h-83l138 216h-59L194 564v-43h142v-88h56v88h65v43z"/><glyph glyph-name="five.numr" d="M263 603h-52l18 177h215v-44H282l-12-93q8 12 26.5 22t46.5 10q26 0 48.5-9.5t39.5-27 27-41 10-52.5q0-27-12-49.5t-32-39-46-26-55-9.5q-64 0-122 47l30 31q20-18 42-26t50-8q41 0 65 19t24 61q0 46-20 67t-58 21q-23 0-42.5-9T263 603z"/><glyph glyph-name="six.numr" d="M351 478q-41 0-64.5 20.5T262 554v30q14 19 37.5 31t52.5 12q39 0 60.5-20.5T434 553q0-32-20.5-53.5T351 478zm103 299q-17 8-40.5 14t-49.5 6q-34 0-63-10.5t-50.5-30-33.5-46-12-58.5v-98q0-55 41-87.5T351 434q33 0 59 9.5t43.5 26 27 38T490 553q0 27-11 48t-30 35.5-44 22.5-53 8q-38 0-57-11.5T262 630v22q0 50 25.5 77t75.5 27q17 0 35-3t30-9z"/><glyph glyph-name="seven.numr" d="M465 780H190v-45h210q-25-34-55-68t-55.5-70-43-76.5T229 433h62q0 47 18 87.5t44.5 76.5 56.5 70 55 68v45z"/><glyph glyph-name="eight.numr" d="M261 708q0 22 19.5 36.5T330 759q29 0 47.5-14.5T395 708q-2-42-66-71l2 1q-34 13-52 31.5T261 708zm67-237q-86 0-86 50 0 23 22.5 43.5T328 599q42-14 65.5-34.5T417 521t-23.5-36.5T328 471zm51 147q29 14 46 39t16 55q0 37-31 60.5T328 796q-53 0-83-22.5T215 712q0-31 17.5-56t48.5-38q-41-16-63.5-41T195 520q0-38 37.5-63.5T328 431q60 0 98.5 25.5T465 521q0 66-86 97z"/><glyph glyph-name="nine.numr" d="M331 749q42 0 65.5-20.5T420 651q-31-45-90-45-38 0-59 18.5T250 677q0 72 81 72zM218 461q19-15 40-21.5t50-6.5q77 0 123 40t46 106v97q0 26-11 48t-30.5 38-46 25-58.5 9q-60 0-98.5-33T194 677q0-51 37.5-82.5T330 563q28 0 47.5 8t42.5 29v-21q0-51-28.5-78T309 474q-45 0-65 20z"/><glyph glyph-name="fraction" d="M366 457l-41 40-560-361 41-48z"/><glyph glyph-name="underscore.more" d="M661-130H0v-70h661v70z"/><glyph glyph-name="asterisk_slash.liga" d="M1156 803l-62 38L639-98l61-39zM379 546L276 431l63-48 96 87 107-99 62 38-105 128 159 59-30 64-142-35 3 155-73 5-13-151-125 48-39-60z"/><glyph glyph-name="braceleft_bar.liga" d="M579-134q-27 0-49 4t-37.5 14.5T468-87t-9 47q0 36-.5 81t-.5 100q0 64-22 102.5T355 292q56 10 79.5 44t23.5 98q0 52 .5 101t.5 85q0 29 8.5 47t24.5 28.5 38 14.5 49 4h85v-848h-85zm441 914H579q-46 0-84.5-8.5t-66-28-43-51T370 614V436q0-25-2-45t-12.5-33.5-33-20.5-62.5-7v-80q41 0 63-7t32.5-21 12.5-33.5 2-45.5V-30q0-47 15-79.5t43-52.5 66.5-29 84.5-9h441v66H755v848h265v66z"/><glyph glyph-name="bracketleft_bar.liga" d="M451-122v823h233v-823H451zm569 902H360v-980h660v78H775v823h245v79z"/><glyph glyph-name="colon_colon.liga" d="M307 468q0-63 63-63 62 0 62 63 0 62-62 62-30 0-46.5-16T307 468zm519 0q0-63 63-63 62 0 62 63 0 62-62 62-30 0-46.5-16T826 468zM307 88q0-63 63-63 62 0 62 63 0 62-62 62-30 0-46.5-16T307 88zm519 0q0-63 63-63 62 0 62 63 0 62-62 62-30 0-46.5-16T826 88z"/><glyph glyph-name="colon_colon_colon.liga" d="M395 468q0-63 63-63 62 0 62 63 0 62-62 62-30 0-46.5-16T395 468zm539 0q0-63 63-63 62 0 62 63 0 62-62 62-30 0-46.5-16T934 468zm540 0q0-63 63-63 62 0 62 63 0 62-62 62-30 0-46.5-16t-16.5-46zM395 88q0-63 63-63 62 0 62 63 0 62-62 62-30 0-46.5-16T395 88zm539 0q0-63 63-63 62 0 62 63 0 62-62 62-30 0-46.5-16T934 88zm540 0q0-63 63-63 62 0 62 63 0 62-62 62-30 0-46.5-16T1474 88z"/><glyph glyph-name="exclam_equal.liga" d="M729 372h451l6 80H771l87 163-62 38-107-201H139l-6-80h514l-68-127H139l-6-80h404L433-31l65-30 120 226h562l6 80H661z"/><glyph glyph-name="exclam_equal_equal.liga" d="M1835 260l6 80h-788l54 97h728l6 80h-689l66 118-62 38-87-156H144l-6-80h887l-54-97H144l-6-80h788l-54-98H144l-6-80h689L753-51l65-30 91 163h926l6 80H954l55 98h826z"/><glyph glyph-name="hyphen_greater.liga" d="M820 616l-58-70 286-199H136v-80h912L762 67l61-68 372 263v91z"/><glyph glyph-name="period_equal.liga" d="M1075 372v80H488l6-80h581zm-864-63q0-73 73-73 35 0 53.5 18.5T356 309q0 35-18.5 53T284 380t-54-18-19-53zm864-144v80H494l-6-80h587z"/><glyph glyph-name="slash_asterisk.liga" d="M599 803l-62 38L82-98l61-39zm258-257L754 431l63-48 96 87 107-99 62 38-105 128 159 59-30 64-142-35 3 155-73 5-13-151-125 48-39-60z"/><glyph glyph-name="bar_braceright.liga" d="M862 141q0-55-.5-100t-.5-81q0-29-9-47t-24.5-28.5T790-130t-49-4h-85v848h85q27 0 49-4t38-14.5 24.5-28.5 8.5-47q0-36 .5-85t.5-101q0-64 23.5-98t79.5-44q-59-10-81-48.5T862 141zm88 473q0 47-15.5 78.5t-43 51-66 28T741 780H300v-66h265v-848H300v-66h441q47 0 85 9t66 29 43 52.5T950-30v173q0 26 2 45.5t12.5 33.5 33 21 62.5 7v80q-40 0-62.5 7t-33 20.5T952 391t-2 45v178z"/><glyph glyph-name="bar_bracketright.liga" d="M636-122v823h233v-823H636zM300 780v-79h245v-823H300v-78h660v980H300z"/><glyph glyph-name="bar_greater.liga" d="M431 611l452-318L431-23v634zm0 103v66h-91v-980h91v74l545 374v91z"/><glyph glyph-name="plus_plus.liga" d="M1136 349H978v159h-80V349H418v159h-80V349H183v-80h155V110h80v159h480V110h80v159h158v80z"/><glyph glyph-name="equal_equal.liga" d="M133 372h1047l6 80H139zm1053-127H139l-6-80h1047z"/><glyph glyph-name="equal_equal_equal.liga" d="M138 437h1697l6 80H144zm1703-97H144l-6-80h1697zm0-178H144l-6-80h1697z"/><glyph glyph-name="equal_greater.liga" d="M825 626l-38-80 132-94H141v-80h890l91-65-88-63H141v-80h781L787 67l41-78 382 273v91z"/><glyph glyph-name="less_bar.liga" d="M889 611V-23L437 293zm0 103L344 339v-91l545-374v-74h91v980h-91v-66z"/><glyph glyph-name="less_hyphen.liga" d="M1184 347H272l286 199-58 70-375-263v-91L497-1l61 68-286 200h912v80z"/><glyph glyph-name="liga1"/><glyph glyph-name="liga2"/><glyph glyph-name="liga3"/><glyph glyph-name="liga4"/><glyph glyph-name="liga5"/><glyph glyph-name="liga6"/><glyph glyph-name="liga7"/><glyph glyph-name="liga8"/><glyph glyph-name="liga9"/><glyph glyph-name="liga10"/><glyph glyph-name="liga11"/><glyph glyph-name="liga12"/><glyph glyph-name="liga13"/><glyph glyph-name="liga14"/><glyph glyph-name="liga15"/><glyph glyph-name="liga16"/><glyph glyph-name="liga17"/><glyph glyph-name="liga18"/><glyph glyph-name="liga19"/></font>
</defs>
</svg>
